<?xml version="1.0" encoding="UTF-8" standalone="no"?><!DOCTYPE svg PUBLIC "-//W3C//DTD SVG 1.1//EN" "http://www.w3.org/Graphics/SVG/1.1/DTD/svg11.dtd"><svg width="100%" height="100%" viewBox="0 0 700 700" version="1.1" xmlns="http://www.w3.org/2000/svg" xmlns:xlink="http://www.w3.org/1999/xlink" xml:space="preserve" xmlns:serif="http://www.serif.com/" style="fill-rule:evenodd;clip-rule:evenodd;stroke-linejoin:round;stroke-miterlimit:2;"><path d="M350,0c193.17,0 350,156.83 350,350c0,193.17 -156.83,350 -350,350c-193.17,0 -350,-156.83 -350,-350c0,-193.17 156.83,-350 350,-350Zm41.06,338.54l-39.746,-26.5l-137.8,60.625l0,191.43l290.5,0l48.258,-64.336l-49.707,-49.715l-111.505,-111.504Zm-244.05,-148c-10.109,13.895 -23.996,24.82 -40.223,31.215l92.734,302.62l-0,-156.28c-0,-0.09 0.051,-0.168 0.055,-0.266c0.027,-0.812 0.16,-1.625 0.484,-2.402c0.008,-0.019 0.008,-0.051 0.02,-0.07l47.723,-112.79l-100.793,-62.027Zm373.47,257.62l40.285,40.285l53.719,-71.625l-94.004,31.34Zm-157.75,-156.44l-60.605,-22.035c-2.141,-0.777 -3.758,-2.539 -4.359,-4.738l-15.68,-57.492l-62.25,147.14l142.894,-62.875Zm-173.708,6.37c-13.531,-0 -24.5,-10.969 -24.5,-24.5c-0,-13.531 10.969,-24.5 24.5,-24.5c13.531,-0 24.5,10.969 24.5,24.5c-0,13.531 -10.969,24.5 -24.5,24.5Zm188.588,-15.86l60.656,-146.32l-146.31,54.523l18.359,67.332l67.295,24.465Zm-243.93,-100.01l-48.152,-30.059l17.676,56.621c13.164,-4.766 24.035,-14.293 30.477,-26.562l-0.001,-0Z" style="fill:#f7df1e;"/></svg>